<svg xmlns="http://www.w3.org/2000/svg" width="1536" height="1024" viewBox="0 0 1536 1024">
  <defs>
    <linearGradient id="bg" x1="0" y1="0" x2="1" y2="1">
      <stop offset="0" stop-color="#111c33"/>
      <stop offset="0.55" stop-color="#172543"/>
      <stop offset="1" stop-color="#0e1729"/>
    </linearGradient>
    <linearGradient id="pyBlue" gradientUnits="userSpaceOnUse" x1="63.8159" y1="56.6829" x2="118.4934" y2="1.8225" gradientTransform="matrix(1 0 0 -1 -53.2974 66.4321)">
      <stop offset="0" style="stop-color:#387EB8"/>
      <stop offset="1" style="stop-color:#366994"/>
    </linearGradient>
    <linearGradient id="pyYellow" gradientUnits="userSpaceOnUse" x1="97.0444" y1="21.6321" x2="155.6665" y2="-34.5308" gradientTransform="matrix(1 0 0 -1 -53.2974 66.4321)">
      <stop offset="0" style="stop-color:#FFE052"/>
      <stop offset="1" style="stop-color:#FFC331"/>
    </linearGradient>
  </defs>

  <rect width="1536" height="1024" fill="url(#bg)"/>

  <!-- accent rules, echoing the smoke-test image -->
  <rect x="112" y="150" width="1312" height="10" rx="5" fill="#E2304B"/>
  <rect x="112" y="864" width="1312" height="10" rx="5" fill="#E2304B"/>

  <!-- speech-bubble motif: posting, not any real brand mark -->
  <g transform="translate(150 405) scale(0.8)">
    <rect x="0" y="0" width="248" height="196" rx="44" fill="#E2304B"/>
    <path d="M52 190 L52 268 L124 196 Z" fill="#E2304B"/>
    <circle cx="74" cy="98" r="17" fill="#FFFFFF"/>
    <circle cx="124" cy="98" r="17" fill="#FFFFFF"/>
    <circle cx="174" cy="98" r="17" fill="#FFFFFF"/>
  </g>

  <!-- wordmark -->
  <g font-family="Helvetica Neue, Helvetica, Arial, sans-serif" font-weight="700" font-size="102" letter-spacing="-3">
    <text x="465" y="550" fill="#F5F7FF">truthsocial<tspan fill="#E2304B">-</tspan>py</text>
  </g>

  <!-- official Python logo -->
  <g transform="translate(1240 427) scale(1.55)">
    <path fill="url(#pyBlue)" d="M55.023-0.077c-25.971,0-26.25,10.081-26.25,12.156c0,3.148,0,12.594,0,12.594h26.75v3.781 c0,0-27.852,0-37.375,0c-7.949,0-17.938,4.833-17.938,26.25c0,19.673,7.792,27.281,15.75,27.281c2.083,0,10.5,0,10.5,0 s0-10.021,0-15.75c0-6.545,3.485-17.938,17.062-17.938c13.577,0,21.792,0,21.792,0s13.104,0.365,13.104-12.688 c0-13.052,0-10.409,0-23.844C78.418,12.156,77.98-0.077,55.023-0.077z M40.148,8.298c2.655,0,4.813,2.147,4.813,4.802 c0,2.655-2.157,4.813-4.813,4.813c-2.665,0-4.813-2.157-4.813-4.813C35.335,10.445,37.483,8.298,40.148,8.298z"/>
    <path fill="url(#pyYellow)" d="M55.397,109.923c25.959,0,26.282-10.271,26.282-12.156c0-3.148,0-12.594,0-12.594H54.897v-3.781 c0,0,28.032,0,37.375,0c8.009,0,17.938-4.954,17.938-26.25c0-23.322-10.538-27.281-15.75-27.281c-2.083,0-10.5,0-10.5,0 s0,10.021,0,15.75c0,6.545-3.667,17.938-17.062,17.938c-13.395,0-21.792,0-21.792,0s-13.104,0.062-13.104,12.688 c0,12.626,0,10.409,0,23.844C32.001,97.69,33.418,109.923,55.397,109.923z M70.272,101.548c-2.655,0-4.813-2.147-4.813-4.802 c0-2.655,2.157-4.813,4.813-4.813c2.665,0,4.813,2.157,4.813,4.813C75.085,99.401,72.937,101.548,70.272,101.548z"/>
  </g>
</svg>
